# xmcd
#
# Track frame offsets:
#	150
#	16357
#	29373
#	40843
#	63504
#	78435
#	87185
#
# Disc length: 1389 seconds
#
# Revision: 0
# Processed by: cddbd v1.5.1PL2 Copyright (c) Steve Scherf et al.
# Submitted via: audiograbber 1.83.01
#
DISCID=4d056b07
DTITLE=Joanna Loth - Slow, Secret Smile
DYEAR=2006
DGENRE=
TTITLE0=Slow, Secret Smile
TTITLE1=Upstream
TTITLE2=Thorns
TTITLE3=Let Go
TTITLE4=Just One
TTITLE5=Filo Faxing
TTITLE6=Magic
EXTD=
EXTT0=
EXTT1=
EXTT2=
EXTT3=
EXTT4=
EXTT5=
EXTT6=
PLAYORDER=
